<?xml version="1.0" encoding="UTF-8"?>
<svg xmlns="http://www.w3.org/2000/svg" xmlns:xlink="http://www.w3.org/1999/xlink" width="16px" height="16px" viewBox="0 0 16 16" version="1.1">
<g id="surface1">
<path style=" stroke:none;fill-rule:nonzero;fill:rgb(0%,0%,0%);fill-opacity:1;" d="M 0.507812 8.132812 L 0.453125 8.105469 C 0.332031 8.039062 0.238281 7.941406 0.171875 7.8125 C 0.078125 7.640625 0.0390625 7.480469 0.0390625 7.3125 L 0.0546875 7.226562 C 0.0546875 7.09375 0.0859375 6.972656 0.148438 6.859375 L 0.199219 6.761719 C 0.226562 6.707031 0.265625 6.660156 0.300781 6.613281 C 0.339844 6.566406 0.347656 6.507812 0.332031 6.453125 L 0.300781 6.347656 C 0.261719 6.214844 0.234375 6.078125 0.234375 5.945312 L 0.214844 5.867188 C 0.214844 5.71875 0.253906 5.574219 0.347656 5.464844 L 0.414062 5.378906 C 0.460938 5.3125 0.535156 5.273438 0.613281 5.246094 C 0.679688 5.226562 0.726562 5.160156 0.734375 5.078125 L 0.746094 4.851562 C 0.746094 4.671875 0.832031 4.507812 0.964844 4.386719 L 1.125 4.265625 C 1.160156 4.234375 1.191406 4.199219 1.21875 4.148438 C 1.253906 4.105469 1.261719 4.054688 1.253906 4.011719 C 1.238281 3.945312 1.253906 3.925781 1.285156 3.921875 C 1.394531 3.960938 1.460938 3.945312 1.507812 3.894531 L 1.59375 3.78125 L 1.832031 3.511719 C 1.898438 3.445312 1.925781 3.328125 1.886719 3.234375 L 1.808594 3.058594 C 1.792969 3.019531 1.808594 2.972656 1.839844 2.960938 C 1.925781 2.960938 1.988281 2.992188 2.011719 3.046875 L 2.039062 3.09375 C 2.078125 3.171875 2.171875 3.214844 2.238281 3.179688 C 2.386719 3.125 2.507812 3.113281 2.621094 3.113281 L 2.832031 3.113281 C 2.980469 3.113281 3.101562 3.011719 3.125 2.859375 C 3.152344 2.671875 3.21875 2.527344 3.3125 2.425781 C 3.414062 2.3125 3.527344 2.226562 3.660156 2.160156 C 3.832031 2.066406 3.941406 1.933594 3.972656 1.761719 C 4.019531 1.546875 4.132812 1.394531 4.285156 1.292969 L 4.792969 1.007812 L 4.941406 0.921875 C 5.027344 0.867188 5.105469 0.800781 5.171875 0.71875 L 5.308594 0.558594 C 5.375 0.492188 5.441406 0.445312 5.519531 0.425781 C 5.585938 0.40625 5.679688 0.394531 5.761719 0.398438 L 6.027344 0.421875 C 6.160156 0.421875 6.265625 0.453125 6.375 0.5 L 6.441406 0.535156 C 6.507812 0.558594 6.574219 0.546875 6.605469 0.5 L 6.667969 0.464844 L 6.953125 0.167969 C 7.019531 0.101562 7.101562 0.0742188 7.1875 0.0859375 C 7.273438 0.101562 7.359375 0.132812 7.441406 0.171875 C 7.558594 0.238281 7.660156 0.265625 7.773438 0.265625 L 7.839844 0.265625 C 7.988281 0.265625 8.132812 0.285156 8.28125 0.320312 L 8.378906 0.347656 C 8.480469 0.375 8.578125 0.332031 8.648438 0.253906 C 8.667969 0.21875 8.714844 0.214844 8.738281 0.238281 C 8.761719 0.253906 8.765625 0.265625 8.773438 0.285156 C 8.785156 0.421875 8.867188 0.519531 8.972656 0.554688 L 9.078125 0.585938 C 9.191406 0.621094 9.292969 0.691406 9.359375 0.785156 C 9.425781 0.886719 9.507812 0.988281 9.601562 1.054688 L 9.667969 1.121094 C 9.734375 1.1875 9.828125 1.214844 9.921875 1.207031 L 10.3125 1.207031 C 10.472656 1.207031 10.625 1.234375 10.78125 1.300781 C 10.925781 1.367188 11.078125 1.378906 11.21875 1.328125 C 11.367188 1.28125 11.519531 1.261719 11.671875 1.28125 L 11.960938 1.328125 C 12.09375 1.339844 12.226562 1.40625 12.308594 1.507812 L 12.339844 1.539062 C 12.40625 1.605469 12.472656 1.691406 12.539062 1.785156 C 12.578125 1.875 12.671875 1.921875 12.765625 1.921875 L 13.179688 1.921875 C 13.28125 1.921875 13.378906 1.941406 13.460938 1.988281 C 13.546875 2.054688 13.621094 2.121094 13.6875 2.1875 L 13.753906 2.273438 C 13.832031 2.367188 13.875 2.492188 13.867188 2.625 C 13.867188 2.734375 13.945312 2.828125 14.054688 2.828125 L 14.1875 2.839844 C 14.28125 2.839844 14.359375 2.90625 14.40625 2.992188 L 14.472656 3.125 L 14.648438 3.511719 C 14.671875 3.578125 14.679688 3.648438 14.671875 3.699219 C 14.671875 3.765625 14.691406 3.820312 14.738281 3.847656 L 14.808594 3.894531 C 14.894531 3.960938 14.941406 4.058594 14.925781 4.171875 L 14.878906 4.488281 L 14.867188 4.621094 C 14.851562 4.6875 14.886719 4.773438 14.945312 4.820312 C 15.046875 4.886719 15.09375 4.972656 15.101562 5.074219 L 15.101562 5.207031 C 15.101562 5.273438 15.085938 5.351562 15.035156 5.40625 C 14.992188 5.460938 14.964844 5.527344 14.964844 5.605469 L 14.988281 5.761719 C 14.988281 5.867188 15.054688 5.960938 15.121094 6.027344 C 15.214844 6.09375 15.265625 6.199219 15.28125 6.308594 C 15.308594 6.472656 15.3125 6.605469 15.3125 6.738281 L 15.3125 6.894531 C 15.3125 6.945312 15.3125 7 15.332031 7.054688 C 15.347656 7.101562 15.378906 7.148438 15.421875 7.171875 L 15.554688 7.273438 C 15.6875 7.359375 15.78125 7.472656 15.832031 7.625 C 15.898438 7.773438 15.921875 7.925781 15.921875 8.078125 L 15.921875 8.132812 C 15.921875 8.253906 15.90625 8.378906 15.867188 8.492188 C 15.832031 8.613281 15.839844 8.726562 15.886719 8.828125 C 15.941406 8.921875 15.972656 9.027344 15.988281 9.140625 C 16.011719 9.273438 16 9.40625 15.953125 9.511719 L 15.941406 9.558594 C 15.90625 9.640625 15.851562 9.714844 15.785156 9.773438 C 15.71875 9.839844 15.652344 9.878906 15.613281 9.925781 C 15.574219 9.964844 15.546875 10.035156 15.566406 10.09375 L 15.585938 10.1875 C 15.621094 10.320312 15.621094 10.453125 15.585938 10.574219 L 15.585938 10.625 C 15.558594 10.726562 15.519531 10.8125 15.480469 10.894531 C 15.433594 10.980469 15.367188 11.046875 15.28125 11.09375 L 15.179688 11.160156 C 15.132812 11.1875 15.101562 11.246094 15.101562 11.308594 C 15.101562 11.375 15.074219 11.441406 15.035156 11.480469 L 14.933594 11.613281 C 14.867188 11.699219 14.78125 11.773438 14.6875 11.8125 C 14.59375 11.878906 14.511719 11.945312 14.453125 12.011719 C 14.386719 12.09375 14.332031 12.1875 14.308594 12.28125 C 14.28125 12.398438 14.1875 12.464844 14.085938 12.464844 L 13.726562 12.464844 C 13.632812 12.464844 13.546875 12.535156 13.507812 12.613281 C 13.460938 12.71875 13.414062 12.792969 13.351562 12.859375 C 13.285156 12.925781 13.246094 13.007812 13.21875 13.101562 C 13.207031 13.179688 13.140625 13.234375 13.074219 13.207031 C 12.988281 13.167969 12.898438 13.207031 12.859375 13.273438 C 12.78125 13.40625 12.699219 13.507812 12.613281 13.59375 L 12.566406 13.632812 C 12.480469 13.699219 12.367188 13.753906 12.265625 13.753906 C 12.148438 13.753906 12.085938 13.808594 12.066406 13.886719 C 12.046875 13.953125 12.035156 14.039062 12.027344 14.113281 C 12.011719 14.191406 11.988281 14.265625 11.960938 14.332031 L 11.925781 14.375 C 11.859375 14.472656 11.808594 14.574219 11.738281 14.660156 L 11.714844 14.699219 C 11.625 14.8125 11.511719 14.898438 11.378906 14.933594 C 11.21875 14.988281 11.078125 15 10.941406 15 L 10.847656 15 C 10.78125 15 10.714844 15.039062 10.667969 15.105469 L 10.625 15.171875 L 10.585938 15.253906 L 10.5 15.398438 C 10.433594 15.519531 10.332031 15.601562 10.199219 15.640625 C 10.066406 15.671875 9.914062 15.6875 9.773438 15.679688 L 9.667969 15.667969 C 9.574219 15.667969 9.488281 15.640625 9.398438 15.601562 C 9.332031 15.574219 9.238281 15.601562 9.199219 15.667969 C 9.132812 15.761719 9.054688 15.8125 8.964844 15.839844 L 8.765625 15.90625 C 8.632812 15.941406 8.488281 15.941406 8.347656 15.90625 L 8.238281 15.875 C 8.171875 15.875 8.105469 15.839844 8.054688 15.808594 C 7.988281 15.773438 7.921875 15.761719 7.851562 15.765625 L 7.765625 15.78125 C 7.632812 15.792969 7.511719 15.78125 7.394531 15.746094 L 7.214844 15.707031 C 7.132812 15.679688 7.058594 15.625 7.011719 15.554688 C 6.980469 15.488281 6.90625 15.433594 6.8125 15.421875 L 6.601562 15.421875 C 6.464844 15.398438 6.347656 15.351562 6.265625 15.253906 L 6 15 L 5.90625 14.921875 L 5.761719 14.8125 L 5.671875 14.746094 C 5.574219 14.679688 5.453125 14.625 5.328125 14.613281 L 4.925781 14.546875 C 4.886719 14.546875 4.859375 14.535156 4.820312 14.527344 L 4.667969 14.492188 C 4.601562 14.480469 4.535156 14.425781 4.488281 14.359375 C 4.445312 14.292969 4.375 14.265625 4.308594 14.292969 C 4.171875 14.347656 4.066406 14.359375 3.960938 14.378906 L 3.867188 14.378906 C 3.691406 14.394531 3.535156 14.367188 3.375 14.292969 C 3.214844 14.226562 3.105469 14.125 3.007812 14 C 2.925781 13.886719 2.808594 13.800781 2.660156 13.773438 L 2.472656 13.734375 C 2.339844 13.707031 2.207031 13.652344 2.085938 13.574219 C 1.953125 13.480469 1.886719 13.394531 1.832031 13.285156 C 1.78125 13.1875 1.746094 13.074219 1.738281 12.953125 L 1.738281 12.898438 C 1.726562 12.765625 1.632812 12.648438 1.507812 12.613281 C 1.351562 12.566406 1.238281 12.5 1.140625 12.414062 C 1.046875 12.328125 0.992188 12.199219 0.992188 12.066406 L 1.007812 11.773438 C 1.007812 11.660156 0.972656 11.558594 0.894531 11.488281 C 0.8125 11.40625 0.761719 11.308594 0.761719 11.199219 L 0.738281 10.960938 C 0.726562 10.785156 0.691406 10.613281 0.652344 10.441406 C 0.613281 10.285156 0.671875 10.132812 0.800781 10.058594 L 0.847656 10.027344 C 0.914062 9.980469 0.941406 9.894531 0.898438 9.8125 L 0.847656 9.746094 C 0.78125 9.679688 0.714844 9.632812 0.648438 9.613281 C 0.59375 9.601562 0.578125 9.546875 0.578125 9.511719 L 0.648438 9.433594 C 0.6875 9.386719 0.679688 9.3125 0.648438 9.273438 C 0.59375 9.21875 0.566406 9.152344 0.558594 9.085938 L 0.546875 8.621094 C 0.546875 8.527344 0.558594 8.433594 0.585938 8.339844 C 0.613281 8.261719 0.585938 8.167969 0.507812 8.125 Z M 7.105469 7.253906 C 7.152344 7.207031 7.148438 7.121094 7.105469 7.085938 C 7.039062 7.035156 6.992188 6.972656 6.953125 6.90625 L 6.886719 6.800781 C 6.839844 6.714844 6.78125 6.640625 6.714844 6.574219 L 6.699219 6.558594 C 6.632812 6.507812 6.585938 6.441406 6.546875 6.359375 C 6.511719 6.292969 6.511719 6.226562 6.546875 6.160156 L 6.585938 6.09375 C 6.625 6.027344 6.652344 5.933594 6.652344 5.851562 L 6.652344 5.828125 C 6.652344 5.761719 6.625 5.691406 6.585938 5.625 C 6.558594 5.574219 6.535156 5.507812 6.519531 5.441406 L 6.519531 5.398438 C 6.5 5.320312 6.519531 5.234375 6.574219 5.167969 C 6.625 5.078125 6.667969 5 6.6875 4.898438 L 6.6875 4.886719 C 6.714844 4.820312 6.699219 4.734375 6.660156 4.667969 C 6.621094 4.601562 6.605469 4.535156 6.632812 4.453125 L 6.679688 4.320312 C 6.71875 4.199219 6.78125 4.09375 6.859375 4 L 6.953125 3.898438 L 7.019531 3.820312 L 7.058594 3.78125 C 7.101562 3.738281 7.105469 3.671875 7.074219 3.621094 C 7.039062 3.554688 7.019531 3.488281 7.035156 3.421875 L 7.046875 3.328125 C 7.066406 3.191406 7.113281 3.058594 7.199219 2.953125 L 7.226562 2.925781 C 7.328125 2.792969 7.453125 2.707031 7.601562 2.660156 L 7.78125 2.59375 C 7.859375 2.566406 7.914062 2.480469 7.914062 2.394531 C 7.914062 2.285156 7.945312 2.191406 8.007812 2.105469 L 8.039062 2.074219 C 8.105469 1.960938 8.1875 1.847656 8.238281 1.726562 L 8.285156 1.640625 C 8.300781 1.621094 8.308594 1.59375 8.308594 1.574219 C 8.308594 1.460938 8.238281 1.359375 8.132812 1.351562 L 7.839844 1.332031 C 7.671875 1.320312 7.507812 1.332031 7.347656 1.332031 L 6.78125 1.398438 C 6.691406 1.398438 6.625 1.464844 6.621094 1.558594 C 6.621094 1.652344 6.554688 1.734375 6.472656 1.761719 L 6.234375 1.828125 L 6.167969 1.847656 L 5.964844 1.914062 C 5.820312 1.960938 5.699219 2.066406 5.632812 2.214844 L 5.578125 2.300781 C 5.511719 2.445312 5.398438 2.566406 5.261719 2.652344 C 5.125 2.738281 5.058594 2.878906 5.046875 3.039062 L 5.046875 3.105469 C 5.035156 3.238281 4.992188 3.375 4.914062 3.464844 L 4.878906 3.519531 C 4.828125 3.585938 4.8125 3.671875 4.847656 3.746094 C 4.878906 3.828125 4.898438 3.914062 4.894531 4 L 4.894531 4.351562 C 4.894531 4.445312 4.828125 4.527344 4.761719 4.554688 C 4.667969 4.585938 4.605469 4.660156 4.578125 4.753906 L 4.546875 4.886719 C 4.519531 5.019531 4.566406 5.152344 4.679688 5.234375 C 4.785156 5.3125 4.851562 5.433594 4.878906 5.578125 L 4.878906 5.699219 C 4.898438 5.832031 4.972656 5.964844 5.09375 6.035156 C 5.214844 6.113281 5.308594 6.234375 5.359375 6.367188 L 5.394531 6.472656 C 5.445312 6.621094 5.566406 6.707031 5.699219 6.71875 L 5.738281 6.71875 C 5.859375 6.71875 5.964844 6.785156 6.035156 6.894531 C 6.101562 7 6.207031 7.074219 6.328125 7.09375 L 6.511719 7.148438 C 6.625 7.179688 6.734375 7.238281 6.820312 7.328125 L 6.832031 7.339844 C 6.898438 7.394531 7.007812 7.386719 7.066406 7.3125 L 7.113281 7.261719 Z M 7.867188 6.640625 C 7.933594 6.679688 8 6.660156 8.027344 6.601562 L 8.046875 6.566406 C 8.09375 6.472656 8.152344 6.378906 8.21875 6.300781 L 8.351562 6.101562 C 8.375 6.101562 8.378906 6.085938 8.386719 6.074219 L 8.546875 5.859375 C 8.613281 5.792969 8.691406 5.746094 8.785156 5.746094 C 8.875 5.746094 8.945312 5.699219 8.988281 5.613281 C 9.011719 5.519531 9.054688 5.433594 9.132812 5.359375 L 9.167969 5.320312 C 9.234375 5.253906 9.300781 5.21875 9.367188 5.1875 C 9.453125 5.171875 9.535156 5.160156 9.613281 5.160156 L 9.8125 5.160156 C 9.894531 5.160156 9.960938 5.125 10 5.058594 C 10.039062 4.992188 10.101562 4.945312 10.167969 4.914062 L 10.234375 4.886719 C 10.339844 4.839844 10.460938 4.808594 10.578125 4.792969 L 10.714844 4.78125 C 10.792969 4.78125 10.878906 4.78125 10.960938 4.828125 C 11.027344 4.875 11.113281 4.867188 11.179688 4.8125 L 11.226562 4.785156 C 11.328125 4.71875 11.441406 4.667969 11.558594 4.652344 L 11.574219 4.652344 C 11.707031 4.625 11.828125 4.625 11.960938 4.632812 L 12.027344 4.632812 C 12.160156 4.652344 12.273438 4.699219 12.359375 4.800781 L 12.378906 4.828125 C 12.445312 4.894531 12.554688 4.945312 12.648438 4.945312 L 12.761719 4.945312 C 12.792969 4.945312 12.828125 4.933594 12.847656 4.898438 C 12.867188 4.878906 12.898438 4.859375 12.933594 4.859375 L 13 4.859375 C 13.09375 4.859375 13.179688 4.886719 13.265625 4.914062 L 13.378906 4.960938 C 13.488281 4.992188 13.601562 5.027344 13.714844 5.039062 L 13.792969 5.039062 C 13.847656 5.039062 13.878906 5.007812 13.878906 4.960938 C 13.878906 4.894531 13.867188 4.828125 13.832031 4.773438 L 13.785156 4.667969 C 13.734375 4.578125 13.691406 4.488281 13.652344 4.398438 L 13.640625 4.367188 C 13.605469 4.300781 13.605469 4.234375 13.640625 4.167969 L 13.640625 4.132812 C 13.652344 4.078125 13.625 4.019531 13.574219 4 L 13.519531 4 C 13.414062 3.964844 13.320312 3.90625 13.253906 3.820312 L 13.1875 3.753906 C 13.121094 3.6875 13.078125 3.585938 13.054688 3.488281 C 13.019531 3.398438 12.945312 3.332031 12.851562 3.332031 L 12.574219 3.332031 C 12.472656 3.320312 12.386719 3.265625 12.328125 3.1875 L 12.300781 3.152344 C 12.253906 3.085938 12.214844 3.007812 12.1875 2.925781 C 12.152344 2.859375 12.078125 2.820312 12.011719 2.839844 L 11.933594 2.867188 C 11.800781 2.914062 11.667969 2.933594 11.535156 2.921875 L 11.425781 2.90625 C 11.3125 2.90625 11.207031 2.859375 11.121094 2.792969 L 11.054688 2.746094 C 11 2.707031 10.945312 2.679688 10.886719 2.652344 C 10.820312 2.625 10.765625 2.640625 10.726562 2.6875 L 10.691406 2.726562 C 10.625 2.792969 10.535156 2.847656 10.441406 2.859375 L 10.078125 2.878906 C 10.011719 2.878906 9.945312 2.914062 9.898438 2.960938 C 9.847656 3.007812 9.785156 3.039062 9.71875 3.054688 L 9.707031 3.054688 C 9.640625 3.054688 9.574219 3.101562 9.507812 3.148438 L 9.507812 3.160156 C 9.441406 3.226562 9.351562 3.261719 9.265625 3.261719 L 9.238281 3.273438 C 9.160156 3.273438 9.078125 3.273438 9 3.292969 L 8.921875 3.292969 C 8.808594 3.3125 8.71875 3.40625 8.691406 3.527344 L 8.667969 3.679688 C 8.648438 3.785156 8.601562 3.878906 8.535156 3.964844 C 8.464844 4.046875 8.386719 4.101562 8.285156 4.101562 L 8.171875 4.101562 C 8.105469 4.113281 8.039062 4.1875 8.054688 4.265625 C 8.066406 4.378906 8.054688 4.480469 8.035156 4.578125 L 8.007812 4.691406 C 7.980469 4.792969 7.914062 4.875 7.828125 4.90625 L 7.785156 4.925781 L 7.773438 4.925781 C 7.734375 4.953125 7.707031 5.011719 7.738281 5.058594 C 7.78125 5.125 7.792969 5.191406 7.785156 5.261719 L 7.765625 5.472656 C 7.765625 5.554688 7.734375 5.625 7.699219 5.691406 C 7.660156 5.761719 7.660156 5.828125 7.6875 5.894531 L 7.753906 6.039062 C 7.785156 6.105469 7.792969 6.171875 7.773438 6.253906 C 7.753906 6.320312 7.738281 6.386719 7.746094 6.453125 C 7.746094 6.519531 7.785156 6.585938 7.839844 6.613281 Z M 13.132812 11.460938 C 13.199219 11.527344 13.300781 11.554688 13.378906 11.5 L 13.511719 11.414062 C 13.578125 11.367188 13.632812 11.300781 13.660156 11.214844 L 13.660156 11.199219 L 13.726562 11 L 13.765625 10.933594 L 13.792969 10.867188 L 13.820312 10.820312 C 13.847656 10.765625 13.886719 10.726562 13.953125 10.707031 L 13.980469 10.691406 C 14.035156 10.679688 14.066406 10.625 14.066406 10.574219 C 14.066406 10.507812 14.101562 10.453125 14.132812 10.40625 L 14.1875 10.359375 L 14.320312 10.1875 L 14.320312 10.171875 C 14.359375 10.121094 14.386719 10.058594 14.398438 9.992188 C 14.414062 9.925781 14.398438 9.859375 14.375 9.792969 L 14.359375 9.765625 C 14.332031 9.699219 14.320312 9.652344 14.3125 9.59375 L 14.292969 9.40625 L 14.273438 9.207031 C 14.273438 9.140625 14.300781 9.074219 14.339844 9.007812 C 14.386719 8.953125 14.421875 8.886719 14.445312 8.820312 L 14.445312 8.792969 L 14.460938 8.78125 C 14.472656 8.714844 14.441406 8.648438 14.378906 8.648438 C 14.3125 8.613281 14.246094 8.558594 14.226562 8.480469 L 14.207031 8.441406 C 14.171875 8.320312 14.152344 8.199219 14.152344 8.078125 L 14.167969 7.746094 L 14.167969 7.726562 C 14.167969 7.613281 14.074219 7.527344 13.964844 7.527344 L 13.953125 7.527344 C 13.820312 7.527344 13.714844 7.488281 13.621094 7.394531 L 13.566406 7.328125 L 13.433594 7.171875 L 13.261719 6.972656 C 13.191406 6.878906 13.125 6.800781 13.039062 6.71875 C 12.972656 6.652344 12.875 6.585938 12.773438 6.574219 L 12.640625 6.554688 C 12.574219 6.539062 12.488281 6.507812 12.414062 6.460938 C 12.359375 6.421875 12.28125 6.433594 12.226562 6.488281 L 12.140625 6.578125 L 12.101562 6.605469 C 12.054688 6.621094 12.007812 6.59375 11.988281 6.539062 C 11.960938 6.460938 11.960938 6.367188 12 6.285156 L 12 6.246094 C 12 6.199219 11.960938 6.167969 11.921875 6.179688 L 11.8125 6.179688 C 11.691406 6.179688 11.574219 6.167969 11.460938 6.113281 L 11.394531 6.085938 C 11.328125 6.054688 11.246094 6.035156 11.171875 6.035156 C 11.105469 6.035156 11.039062 6.046875 10.972656 6.085938 L 10.945312 6.105469 C 10.867188 6.160156 10.773438 6.1875 10.679688 6.191406 L 10.460938 6.191406 C 10.359375 6.191406 10.261719 6.226562 10.191406 6.28125 C 10.105469 6.332031 10.011719 6.367188 9.914062 6.386719 L 9.734375 6.414062 C 9.652344 6.433594 9.566406 6.464844 9.492188 6.527344 C 9.425781 6.59375 9.332031 6.632812 9.246094 6.660156 L 9.214844 6.671875 C 9.105469 6.707031 9.011719 6.773438 8.945312 6.875 L 8.867188 6.953125 C 8.820312 7.019531 8.820312 7.101562 8.867188 7.167969 C 8.90625 7.234375 8.988281 7.253906 9.066406 7.234375 L 9.167969 7.191406 C 9.21875 7.171875 9.28125 7.191406 9.328125 7.21875 C 9.367188 7.253906 9.425781 7.273438 9.488281 7.265625 L 9.652344 7.246094 C 9.746094 7.246094 9.839844 7.246094 9.933594 7.273438 C 10.035156 7.308594 10.121094 7.339844 10.199219 7.40625 C 10.28125 7.472656 10.367188 7.5 10.464844 7.511719 C 10.566406 7.527344 10.667969 7.546875 10.761719 7.578125 L 10.828125 7.59375 C 10.894531 7.613281 10.945312 7.660156 10.988281 7.726562 C 11.019531 7.78125 11.054688 7.859375 11.054688 7.925781 L 11.054688 7.945312 C 11.054688 8.027344 11.121094 8.078125 11.1875 8.078125 L 11.226562 8.078125 C 11.332031 8.078125 11.445312 8.09375 11.558594 8.125 L 11.605469 8.148438 C 11.671875 8.171875 11.738281 8.214844 11.785156 8.28125 C 11.839844 8.347656 11.875 8.414062 11.894531 8.480469 L 11.914062 8.574219 C 11.933594 8.671875 11.941406 8.773438 11.941406 8.878906 L 11.941406 8.914062 C 11.941406 8.980469 11.988281 9.046875 12.058594 9.074219 C 12.125 9.085938 12.207031 9.113281 12.28125 9.152344 L 12.3125 9.167969 C 12.398438 9.21875 12.488281 9.285156 12.554688 9.367188 L 12.585938 9.414062 C 12.671875 9.511719 12.71875 9.640625 12.71875 9.765625 L 12.71875 9.8125 C 12.71875 9.914062 12.699219 10.011719 12.667969 10.105469 C 12.640625 10.1875 12.667969 10.28125 12.753906 10.308594 L 12.800781 10.339844 C 12.898438 10.378906 12.988281 10.453125 13.054688 10.539062 C 13.121094 10.640625 13.148438 10.753906 13.148438 10.875 L 13.148438 11.074219 C 13.132812 11.140625 13.113281 11.191406 13.078125 11.238281 C 13.046875 11.285156 13.046875 11.351562 13.078125 11.398438 L 13.121094 11.464844 Z M 8.867188 8.046875 L 8.851562 8.046875 C 8.828125 8.046875 8.8125 8.078125 8.820312 8.113281 L 8.847656 8.246094 C 8.875 8.351562 8.886719 8.460938 8.898438 8.566406 C 8.914062 8.671875 8.964844 8.765625 9.046875 8.832031 L 9.074219 8.832031 C 9.171875 8.914062 9.234375 9.035156 9.238281 9.152344 L 9.238281 9.488281 C 9.226562 9.554688 9.238281 9.621094 9.28125 9.671875 L 9.3125 9.707031 C 9.378906 9.785156 9.40625 9.878906 9.414062 9.972656 L 9.433594 10.339844 C 9.433594 10.425781 9.378906 10.5 9.300781 10.511719 L 9.234375 10.527344 C 9.1875 10.527344 9.167969 10.578125 9.167969 10.625 C 9.167969 10.679688 9.1875 10.738281 9.207031 10.792969 L 9.207031 10.808594 C 9.226562 10.875 9.234375 10.941406 9.226562 11.007812 L 9.199219 11.1875 C 9.171875 11.320312 9.132812 11.441406 9.066406 11.558594 L 9.019531 11.640625 C 8.988281 11.707031 8.941406 11.746094 8.886719 11.773438 C 8.820312 11.800781 8.773438 11.851562 8.753906 11.921875 L 8.699219 12.160156 C 8.667969 12.292969 8.605469 12.425781 8.527344 12.558594 L 8.511719 12.558594 C 8.433594 12.667969 8.332031 12.761719 8.214844 12.828125 L 8.132812 12.878906 L 7.933594 12.980469 C 7.867188 13.007812 7.828125 13.066406 7.8125 13.140625 L 7.78125 13.359375 C 7.761719 13.492188 7.714844 13.605469 7.621094 13.691406 L 7.535156 13.792969 L 7.433594 13.894531 L 7.332031 14 C 7.253906 14.09375 7.132812 14.132812 7 14.113281 L 6.761719 14.066406 L 6.539062 14.039062 L 6.480469 14.039062 C 6.453125 14.066406 6.445312 14.105469 6.464844 14.148438 C 6.511719 14.226562 6.585938 14.28125 6.667969 14.28125 L 6.8125 14.308594 C 6.878906 14.308594 6.960938 14.339844 7.027344 14.375 C 7.09375 14.421875 7.160156 14.453125 7.238281 14.472656 L 7.253906 14.472656 C 7.339844 14.507812 7.433594 14.511719 7.519531 14.507812 L 7.621094 14.492188 C 7.734375 14.480469 7.839844 14.492188 7.933594 14.535156 L 8.011719 14.558594 C 8.046875 14.574219 8.101562 14.558594 8.132812 14.527344 C 8.171875 14.488281 8.214844 14.460938 8.265625 14.441406 L 8.320312 14.425781 C 8.40625 14.398438 8.492188 14.386719 8.585938 14.386719 L 8.640625 14.386719 C 8.71875 14.386719 8.792969 14.398438 8.859375 14.441406 L 8.886719 14.453125 C 8.933594 14.472656 8.988281 14.453125 9.019531 14.414062 C 9.039062 14.367188 9.085938 14.320312 9.132812 14.28125 L 9.300781 14.167969 L 9.40625 14.101562 L 9.460938 14.066406 C 9.527344 14.019531 9.621094 14 9.699219 14 L 9.941406 13.980469 C 10.035156 13.964844 10.113281 13.898438 10.140625 13.808594 C 10.167969 13.707031 10.207031 13.605469 10.273438 13.519531 C 10.339844 13.433594 10.40625 13.359375 10.472656 13.292969 C 10.558594 13.226562 10.648438 13.191406 10.738281 13.1875 L 10.792969 13.1875 C 10.898438 13.167969 10.980469 13.066406 10.972656 12.960938 L 10.972656 12.511719 C 10.988281 12.445312 11.011719 12.359375 11.054688 12.292969 L 11.1875 12.09375 L 11.238281 12.027344 C 11.28125 11.992188 11.308594 11.945312 11.351562 11.894531 L 11.421875 11.808594 C 11.460938 11.738281 11.460938 11.652344 11.40625 11.59375 C 11.339844 11.527344 11.308594 11.433594 11.292969 11.339844 L 11.292969 11.3125 C 11.28125 11.207031 11.28125 11.09375 11.3125 10.980469 L 11.3125 10.945312 C 11.347656 10.859375 11.394531 10.773438 11.445312 10.691406 C 11.5 10.625 11.492188 10.535156 11.425781 10.480469 L 11.3125 10.378906 C 11.21875 10.300781 11.167969 10.179688 11.152344 10.058594 L 11.140625 9.925781 C 11.140625 9.886719 11.140625 9.839844 11.125 9.792969 L 11.113281 9.691406 C 11.101562 9.578125 11.035156 9.492188 10.941406 9.425781 L 10.894531 9.414062 C 10.828125 9.375 10.761719 9.3125 10.707031 9.234375 C 10.652344 9.167969 10.625 9.074219 10.605469 8.980469 L 10.585938 8.867188 C 10.585938 8.828125 10.558594 8.800781 10.519531 8.78125 L 10.414062 8.746094 L 10.199219 8.679688 C 10.132812 8.667969 10.066406 8.613281 10.019531 8.566406 L 10.007812 8.566406 C 9.964844 8.511719 9.898438 8.511719 9.859375 8.554688 L 9.792969 8.621094 C 9.78125 8.640625 9.765625 8.648438 9.746094 8.640625 C 9.707031 8.640625 9.679688 8.605469 9.691406 8.574219 C 9.707031 8.464844 9.667969 8.359375 9.578125 8.292969 L 9.492188 8.226562 L 9.292969 8.09375 C 9.238281 8.074219 9.160156 8.09375 9.132812 8.160156 L 9.105469 8.199219 C 9.105469 8.214844 9.085938 8.21875 9.078125 8.226562 C 9.054688 8.226562 9.011719 8.226562 9.011719 8.191406 L 8.992188 8.160156 C 8.972656 8.121094 8.925781 8.09375 8.886719 8.078125 Z M 8.066406 8.714844 L 8.035156 8.679688 C 8 8.652344 7.964844 8.660156 7.933594 8.691406 C 7.886719 8.773438 7.847656 8.859375 7.828125 8.945312 L 7.828125 8.960938 C 7.808594 9.046875 7.726562 9.105469 7.648438 9.09375 L 7.566406 9.09375 C 7.472656 9.09375 7.398438 9.171875 7.398438 9.265625 C 7.398438 9.386719 7.359375 9.507812 7.285156 9.601562 L 7.246094 9.640625 C 7.179688 9.726562 7.078125 9.785156 6.980469 9.820312 L 6.925781 9.832031 C 6.859375 9.851562 6.808594 9.898438 6.792969 9.980469 C 6.792969 10.046875 6.753906 10.113281 6.699219 10.167969 L 6.632812 10.21875 C 6.554688 10.308594 6.433594 10.351562 6.3125 10.367188 L 5.980469 10.398438 C 5.875 10.398438 5.78125 10.464844 5.714844 10.566406 C 5.648438 10.667969 5.546875 10.734375 5.445312 10.746094 L 5.300781 10.761719 C 5.191406 10.773438 5.078125 10.773438 4.964844 10.746094 L 4.898438 10.734375 L 4.71875 10.6875 C 4.652344 10.667969 4.601562 10.6875 4.558594 10.734375 L 4.492188 10.820312 C 4.40625 10.921875 4.28125 10.964844 4.160156 10.953125 L 3.726562 10.898438 C 3.660156 10.898438 3.605469 10.867188 3.546875 10.832031 C 3.480469 10.792969 3.433594 10.746094 3.386719 10.699219 L 3.21875 10.5 C 3.199219 10.488281 3.167969 10.480469 3.132812 10.488281 L 3.039062 10.527344 L 2.667969 10.621094 C 2.601562 10.640625 2.511719 10.621094 2.445312 10.578125 C 2.378906 10.527344 2.300781 10.511719 2.21875 10.511719 L 2.132812 10.511719 C 2.054688 10.535156 2 10.621094 2.027344 10.699219 L 2.054688 10.832031 C 2.074219 10.898438 2.066406 10.980469 2.035156 11.046875 C 2 11.113281 2.007812 11.179688 2.054688 11.246094 L 2.09375 11.300781 C 2.148438 11.378906 2.226562 11.445312 2.292969 11.511719 C 2.359375 11.578125 2.425781 11.648438 2.480469 11.734375 L 2.578125 11.914062 C 2.632812 12.007812 2.714844 12.058594 2.820312 12.058594 C 2.921875 12.058594 3.019531 12.09375 3.101562 12.160156 L 3.300781 12.347656 C 3.351562 12.394531 3.433594 12.398438 3.488281 12.359375 L 3.519531 12.347656 C 3.558594 12.347656 3.585938 12.375 3.585938 12.414062 L 3.585938 12.445312 C 3.585938 12.535156 3.652344 12.613281 3.738281 12.648438 L 4.039062 12.714844 C 4.148438 12.746094 4.253906 12.78125 4.351562 12.847656 L 4.40625 12.847656 C 4.460938 12.847656 4.507812 12.800781 4.5 12.738281 L 4.5 12.507812 C 4.5 12.441406 4.527344 12.375 4.578125 12.347656 L 4.613281 12.332031 C 4.648438 12.347656 4.679688 12.375 4.667969 12.398438 L 4.667969 12.511719 C 4.667969 12.601562 4.691406 12.679688 4.753906 12.738281 C 4.820312 12.808594 4.90625 12.820312 4.980469 12.792969 C 5.058594 12.761719 5.140625 12.753906 5.226562 12.761719 L 5.472656 12.773438 C 5.59375 12.785156 5.707031 12.773438 5.808594 12.726562 C 5.925781 12.6875 6.027344 12.632812 6.121094 12.558594 L 6.160156 12.535156 L 6.359375 12.351562 C 6.425781 12.285156 6.511719 12.253906 6.59375 12.253906 L 6.859375 12.253906 C 6.992188 12.238281 7.113281 12.121094 7.125 11.988281 L 7.152344 11.851562 C 7.152344 11.765625 7.191406 11.6875 7.253906 11.621094 C 7.320312 11.554688 7.386719 11.511719 7.453125 11.488281 L 7.535156 11.453125 C 7.648438 11.40625 7.734375 11.308594 7.773438 11.1875 L 7.8125 11.027344 C 7.847656 10.894531 7.914062 10.761719 8.011719 10.671875 L 8.027344 10.660156 C 8.105469 10.59375 8.121094 10.460938 8.066406 10.367188 L 8.046875 10.320312 C 8 10.253906 7.992188 10.152344 8.027344 10.066406 C 8.058594 9.972656 8.09375 9.894531 8.148438 9.8125 L 8.214844 9.71875 C 8.238281 9.667969 8.238281 9.585938 8.199219 9.539062 C 8.160156 9.488281 8.132812 9.421875 8.132812 9.351562 L 8.121094 9.261719 L 8.121094 9.035156 C 8.132812 8.964844 8.121094 8.878906 8.101562 8.8125 L 8.074219 8.734375 Z M 7.113281 8.207031 L 7.113281 8.1875 C 7.113281 8.121094 7.074219 8.078125 7.019531 8.078125 L 6.847656 8.078125 C 6.78125 8.09375 6.714844 8.09375 6.660156 8.078125 L 6.359375 8.078125 C 6.207031 8.078125 6.058594 8.054688 5.914062 8.011719 L 5.753906 7.972656 L 5.621094 7.933594 L 5.320312 7.832031 C 5.160156 7.785156 5.039062 7.679688 4.964844 7.535156 L 4.933594 7.464844 C 4.886719 7.367188 4.785156 7.3125 4.6875 7.332031 C 4.574219 7.332031 4.460938 7.332031 4.351562 7.28125 L 4.273438 7.246094 C 4.121094 7.179688 4.007812 7.046875 4.007812 6.867188 L 3.980469 6.6875 C 3.960938 6.59375 3.898438 6.507812 3.820312 6.472656 C 3.726562 6.433594 3.640625 6.378906 3.554688 6.320312 L 3.519531 6.300781 C 3.421875 6.21875 3.332031 6.113281 3.285156 5.988281 L 3.273438 5.945312 C 3.238281 5.839844 3.234375 5.726562 3.261719 5.613281 L 3.273438 5.574219 C 3.300781 5.488281 3.308594 5.398438 3.308594 5.308594 C 3.308594 5.226562 3.273438 5.148438 3.214844 5.085938 L 3.121094 5 C 3.011719 4.914062 2.945312 4.785156 2.941406 4.648438 C 2.925781 4.5 2.925781 4.359375 2.953125 4.21875 L 2.953125 4.179688 C 2.953125 4.101562 2.886719 4.046875 2.820312 4.046875 L 2.800781 4.046875 C 2.714844 4.046875 2.640625 4.101562 2.601562 4.179688 C 2.566406 4.273438 2.511719 4.347656 2.453125 4.421875 L 2.425781 4.453125 L 2.226562 4.652344 C 2.160156 4.71875 2.121094 4.820312 2.105469 4.921875 C 2.09375 5.019531 2.066406 5.121094 2.027344 5.214844 L 2.011719 5.246094 C 1.980469 5.328125 1.925781 5.398438 1.859375 5.445312 C 1.792969 5.5 1.746094 5.578125 1.746094 5.660156 L 1.734375 5.964844 C 1.734375 6.101562 1.714844 6.234375 1.667969 6.367188 L 1.652344 6.421875 C 1.621094 6.507812 1.652344 6.601562 1.734375 6.640625 L 2.011719 6.761719 L 2.039062 6.773438 C 2.058594 6.773438 2.066406 6.785156 2.074219 6.808594 C 2.09375 6.832031 2.074219 6.875 2.054688 6.875 L 1.988281 6.90625 C 1.945312 6.921875 1.921875 6.960938 1.90625 7.007812 L 1.894531 7.074219 L 1.894531 7.085938 L 1.828125 7.460938 C 1.8125 7.511719 1.8125 7.574219 1.8125 7.632812 C 1.8125 7.6875 1.847656 7.734375 1.894531 7.753906 L 2.039062 7.820312 C 2.105469 7.859375 2.1875 7.90625 2.238281 7.953125 L 2.308594 8.007812 C 2.328125 8.035156 2.359375 8.058594 2.386719 8.074219 L 2.414062 8.101562 C 2.460938 8.140625 2.492188 8.191406 2.507812 8.253906 L 2.574219 8.554688 C 2.574219 8.632812 2.640625 8.699219 2.707031 8.71875 L 2.8125 8.753906 C 2.8125 8.753906 2.832031 8.753906 2.847656 8.765625 L 2.980469 8.808594 C 3.085938 8.839844 3.179688 8.898438 3.261719 8.980469 C 3.339844 9.046875 3.421875 9.132812 3.488281 9.226562 L 3.511719 9.253906 C 3.566406 9.320312 3.648438 9.351562 3.726562 9.332031 C 3.808594 9.3125 3.894531 9.308594 3.980469 9.308594 L 4.078125 9.308594 C 4.148438 9.308594 4.234375 9.328125 4.308594 9.375 C 4.375 9.414062 4.460938 9.441406 4.539062 9.472656 L 4.558594 9.472656 C 4.640625 9.507812 4.726562 9.492188 4.792969 9.445312 C 4.859375 9.394531 4.945312 9.367188 5.035156 9.367188 L 5.347656 9.386719 C 5.414062 9.386719 5.480469 9.375 5.511719 9.320312 L 5.527344 9.320312 L 5.640625 9.214844 L 5.671875 9.179688 C 5.726562 9.113281 5.808594 9.085938 5.886719 9.078125 L 6.1875 9.078125 C 6.265625 9.078125 6.339844 9.011719 6.375 8.945312 C 6.40625 8.878906 6.472656 8.828125 6.554688 8.8125 L 6.6875 8.785156 C 6.738281 8.785156 6.785156 8.738281 6.808594 8.679688 C 6.828125 8.613281 6.859375 8.558594 6.90625 8.519531 L 7.011719 8.414062 C 7.078125 8.347656 7.113281 8.28125 7.125 8.199219 Z M 7.113281 8.207031 "/>
</g>
</svg>
